<svg xmlns="http://www.w3.org/2000/svg" width="182" height="100" viewBox="0 0 182 100" fill="none"><g clip-path="url(#clip0_406_445)"><path d="M0 88.8963C0 88.7947 0.0509793 88.7437 0.153027 88.7437H2.06537C2.16713 88.7437 2.21825 88.7947 2.21825 88.8963V93.0507C2.21825 93.1525 2.26923 93.2034 2.37128 93.2034H5.99694C6.09881 93.2034 6.14993 93.1525 6.14993 93.0507V88.8963C6.14993 88.7947 6.20091 88.7437 6.30296 88.7437H8.21528C8.3171 88.7437 8.36818 88.7947 8.36818 88.8963V99.5419C8.36818 99.6436 8.3171 99.6945 8.21528 99.6945H6.30296C6.20091 99.6945 6.14993 99.6436 6.14993 99.5419V95.3416C6.14993 95.24 6.09881 95.1889 5.99694 95.1889H2.37128C2.26923 95.1889 2.21825 95.24 2.21825 95.3416V99.5419C2.21825 99.6436 2.16713 99.6945 2.06537 99.6945H0.153027C0.0509793 99.6945 0 99.6436 0 99.5419V88.8963Z" fill="#575656"></path><path d="M12.3889 89.6448C12.5113 89.2477 12.7355 88.9983 13.0621 88.8963C13.3884 88.7947 13.832 88.7437 14.393 88.7437C14.9743 88.7437 15.4307 88.7947 15.7622 88.8963C16.0936 88.9983 16.3206 89.2477 16.443 89.6448L19.5179 99.6029C19.5179 99.664 19.4821 99.6945 19.4109 99.6945H17.4068C17.3047 99.6945 17.2385 99.6486 17.208 99.5571L16.3971 96.9148C16.3665 96.8132 16.3 96.7622 16.1983 96.7622H12.6031C12.501 96.7622 12.4349 96.8182 12.4042 96.93L11.5934 99.5419C11.5628 99.6436 11.4964 99.6945 11.3945 99.6945H9.40577C9.324 99.6945 9.28345 99.664 9.28345 99.6029L12.3889 89.6448ZM14.5766 91.004C14.546 90.8922 14.5204 90.8184 14.5001 90.7827C14.4795 90.7471 14.444 90.7292 14.393 90.7292C14.3418 90.7292 14.286 90.8208 14.2248 91.004L13.1539 94.4863C13.1539 94.5068 13.1512 94.5222 13.1463 94.5322C13.1409 94.5423 13.1386 94.5527 13.1386 94.5627C13.1386 94.6342 13.1793 94.6697 13.261 94.6697H15.5404C15.6219 94.6697 15.6628 94.6342 15.6628 94.5627C15.6628 94.5527 15.6602 94.5423 15.6551 94.5322C15.6499 94.5222 15.6475 94.5068 15.6475 94.4863L14.5766 91.004Z" fill="#575656"></path><path d="M20.3938 88.8963C20.3938 88.7947 20.4448 88.7437 20.5468 88.7437H25.427C25.9981 88.7437 26.4826 88.8328 26.8803 89.0109C27.2781 89.1893 27.5994 89.4361 27.8441 89.7516C28.0889 90.0675 28.2672 90.4442 28.3796 90.8818C28.4916 91.3198 28.5478 91.7984 28.5478 92.3176C28.5478 92.8574 28.4916 93.3461 28.3796 93.7839C28.2672 94.2217 28.0889 94.5985 27.8441 94.9139C27.5994 95.2298 27.2781 95.4715 26.8803 95.6395C26.4826 95.8075 25.9981 95.8915 25.427 95.8915H22.765C22.663 95.8915 22.612 95.9426 22.612 96.0442V99.5419C22.612 99.6436 22.5609 99.6945 22.4591 99.6945H20.5468C20.4448 99.6945 20.3938 99.6436 20.3938 99.5419V88.8963ZM22.765 90.7292C22.663 90.7292 22.612 90.7803 22.612 90.8818V93.7531C22.612 93.8551 22.663 93.906 22.765 93.906H25.687C25.8706 93.906 26.016 93.8425 26.1231 93.7151C26.2301 93.5879 26.309 93.4378 26.3601 93.2644C26.4111 93.0915 26.4443 92.9159 26.4596 92.7376C26.4749 92.5596 26.4826 92.4196 26.4826 92.3176C26.4826 92.2158 26.4749 92.0758 26.4596 91.8975C26.4443 91.7195 26.4111 91.5439 26.3601 91.3705C26.309 91.1975 26.2301 91.0475 26.1231 90.9202C26.016 90.7928 25.8706 90.7292 25.687 90.7292H22.765Z" fill="#575656"></path><path d="M29.3342 88.8963C29.3342 88.7947 29.3852 88.7437 29.4872 88.7437H34.3675C34.9385 88.7437 35.423 88.8328 35.8207 89.0109C36.2185 89.1893 36.5398 89.4361 36.7846 89.7516C37.0293 90.0675 37.2076 90.4442 37.32 90.8818C37.4321 91.3198 37.4882 91.7984 37.4882 92.3176C37.4882 92.8574 37.4321 93.3461 37.32 93.7839C37.2076 94.2217 37.0293 94.5985 36.7846 94.9139C36.5398 95.2298 36.2185 95.4715 35.8207 95.6395C35.423 95.8075 34.9385 95.8915 34.3675 95.8915H31.7055C31.6035 95.8915 31.5525 95.9426 31.5525 96.0442V99.5419C31.5525 99.6436 31.5013 99.6945 31.3995 99.6945H29.4872C29.3852 99.6945 29.3342 99.6436 29.3342 99.5419V88.8963ZM31.7055 90.7292C31.6035 90.7292 31.5525 90.7803 31.5525 90.8818V93.7531C31.5525 93.8551 31.6035 93.906 31.7055 93.906H34.6275C34.8111 93.906 34.9564 93.8425 35.0635 93.7151C35.1706 93.5879 35.2494 93.4378 35.3006 93.2644C35.3516 93.0915 35.3847 92.9159 35.4 92.7376C35.4153 92.5596 35.423 92.4196 35.423 92.3176C35.423 92.2158 35.4153 92.0758 35.4 91.8975C35.3847 91.7195 35.3516 91.5439 35.3006 91.3705C35.2494 91.1975 35.1706 91.0475 35.0635 90.9202C34.9564 90.7928 34.8111 90.7292 34.6275 90.7292H31.7055Z" fill="#575656"></path><path d="M41.9886 99.6945C41.8355 99.6945 41.759 99.5674 41.759 99.3128V95.9067C41.6569 95.8762 41.5269 95.8151 41.3689 95.7235C41.2106 95.6319 41.0756 95.4894 40.9635 95.2959L38.0263 88.9727C37.9444 88.8199 37.97 88.7437 38.1027 88.7437H40.2139C40.3363 88.7437 40.4228 88.8047 40.474 88.9269L42.6463 93.631C42.6972 93.733 42.7788 93.7839 42.8911 93.7839C42.9624 93.7839 43.0108 93.7711 43.0364 93.7456C43.0618 93.7202 43.095 93.6821 43.1359 93.631L45.2317 88.9574C45.2929 88.8149 45.3795 88.7437 45.4918 88.7437H47.5571C47.6283 88.7437 47.6718 88.7666 47.6871 88.8123C47.7024 88.8582 47.6998 88.9067 47.6794 88.9574L44.834 95.2959C44.6911 95.4894 44.5534 95.6319 44.4209 95.7235C44.2882 95.8151 44.1659 95.8762 44.0538 95.9067V99.3128C44.0538 99.5674 43.9823 99.6945 43.8396 99.6945H41.9886Z" fill="#575656"></path><path d="M52.7014 90.7903C52.7014 90.4442 52.7574 90.1437 52.8697 89.8891C52.9818 89.6347 53.1374 89.4233 53.3363 89.2553C53.5352 89.0873 53.7696 88.96 54.04 88.8734C54.3101 88.787 54.6034 88.7437 54.9196 88.7437H60.2741C60.3759 88.7437 60.427 88.7947 60.427 88.8963V90.5764C60.427 90.6783 60.3759 90.7292 60.2741 90.7292H55.654C55.3787 90.7292 55.1874 90.8032 55.0803 90.9507C54.9732 91.0984 54.9196 91.3095 54.9196 91.5845V93.0354C54.9196 93.1475 54.9706 93.2034 55.0726 93.2034H59.7692C59.8711 93.2034 59.9222 93.2545 59.9222 93.3561V95.0363C59.9222 95.138 59.8711 95.1889 59.7692 95.1889H55.0726C54.9706 95.1889 54.9196 95.245 54.9196 95.3569V99.5419C54.9196 99.6436 54.8685 99.6945 54.7667 99.6945H52.8544C52.7523 99.6945 52.7014 99.6436 52.7014 99.5419V90.7903Z" fill="#575656"></path><path d="M61.196 94.2114C61.196 93.6108 61.201 93.0914 61.2113 92.6536C61.2214 92.2158 61.2519 91.8594 61.3031 91.5844C61.3847 91.1873 61.4714 90.8309 61.5632 90.5152C61.655 90.1997 61.7774 89.9401 61.9303 89.7364C62.1343 89.4718 62.3893 89.2399 62.6952 89.0413C63.0012 88.8428 63.3275 88.7031 63.6743 88.6213C63.9192 88.5706 64.2404 88.5401 64.6382 88.5297C65.0359 88.5197 65.5102 88.5145 66.0609 88.5145C66.6115 88.5145 67.0859 88.5197 67.4837 88.5297C67.8814 88.5401 68.2027 88.5706 68.4474 88.6213C68.794 88.7031 69.1206 88.8428 69.4265 89.0413C69.7325 89.2399 69.9874 89.4718 70.1915 89.7364C70.3444 89.9401 70.4669 90.1997 70.5586 90.5152C70.6505 90.8309 70.7369 91.1873 70.8187 91.5844C70.8696 91.8594 70.9002 92.2158 70.9105 92.6536C70.9205 93.0914 70.9258 93.6108 70.9258 94.2114V94.303C70.9258 94.9039 70.9205 95.4233 70.9105 95.8609C70.9002 96.2988 70.8696 96.6551 70.8187 96.9299C70.7369 97.3272 70.6505 97.6836 70.5586 97.9991C70.4669 98.3148 70.3444 98.5746 70.1915 98.7781C69.9874 99.0429 69.7325 99.2744 69.4265 99.473C69.1206 99.6715 68.794 99.8114 68.4474 99.893C68.2027 99.9439 67.8814 99.9744 67.4837 99.9846C67.0859 99.9946 66.6116 100 66.0609 100C65.5101 100 65.0359 99.9946 64.6382 99.9846C64.2404 99.9744 63.9192 99.9439 63.6743 99.893C63.3275 99.8114 63.0012 99.6715 62.6952 99.473C62.3893 99.2744 62.1343 99.0429 61.9303 98.7781C61.7774 98.5746 61.655 98.3148 61.5632 97.9991C61.4714 97.6836 61.3847 97.3272 61.3031 96.9299C61.2519 96.6551 61.2214 96.2988 61.2113 95.8609C61.201 95.4233 61.196 94.9039 61.196 94.303V94.2114ZM65.1583 90.6451C64.8727 90.6603 64.6279 90.6936 64.424 90.7443C64.0568 90.8361 63.7968 91.0169 63.6437 91.2865C63.4908 91.5565 63.4143 91.9612 63.4143 92.5007V96.0136C63.4143 96.5534 63.4908 96.9582 63.6437 97.2278C63.7968 97.4978 64.0568 97.6784 64.424 97.77C64.6279 97.8211 64.8727 97.854 65.1583 97.8694C65.4438 97.8846 65.7447 97.8922 66.0609 97.8922C66.3769 97.8922 66.6779 97.8846 66.9635 97.8694C67.2489 97.854 67.4937 97.8211 67.6978 97.77C68.065 97.6784 68.3251 97.4978 68.4781 97.2278C68.631 96.9582 68.7075 96.5534 68.7075 96.0136V92.5007C68.7075 91.9612 68.631 91.5565 68.4781 91.2865C68.3251 91.0169 68.065 90.8361 67.6978 90.7443C67.4937 90.6936 67.2489 90.6603 66.9635 90.6451C66.6779 90.6298 66.3769 90.6222 66.0609 90.6222C65.7447 90.6222 65.4438 90.6298 65.1583 90.6451Z" fill="#575656"></path><path d="M72.2082 88.7437H77.8992C78.1846 88.7437 78.4653 88.7998 78.7406 88.9117C79.0159 89.0238 79.286 89.217 79.5514 89.492C80.0103 89.9707 80.2552 90.6937 80.2857 91.6609V92.0121C80.2857 92.9083 80.1786 93.56 79.9645 93.9671C79.8215 94.1708 79.6738 94.3566 79.5208 94.5246C79.3678 94.6926 79.1586 94.8479 78.8936 94.9903C78.8833 95.0007 78.8706 95.0159 78.8553 95.0363C78.84 95.0568 78.8323 95.082 78.8323 95.1125C78.8323 95.133 78.8374 95.1534 78.8477 95.1737C79.0822 95.479 79.2478 95.7465 79.3449 95.9755C79.4417 96.2046 79.5308 96.4413 79.6125 96.6857L80.454 99.2668C80.4743 99.3485 80.5126 99.4221 80.5687 99.4884C80.6246 99.5546 80.6529 99.5979 80.6529 99.6181C80.6529 99.6691 80.6222 99.6945 80.5611 99.6945H78.45C78.3887 99.6945 78.3222 99.641 78.251 99.5341C78.1795 99.4273 78.1337 99.3383 78.1134 99.2668L77.1648 96.5941C77.0219 96.024 76.7312 95.7081 76.2929 95.6471H74.4264C74.3244 95.6471 74.2734 95.6982 74.2734 95.7999V99.5419C74.2734 99.6436 74.2223 99.6945 74.1205 99.6945H72.2082C72.1062 99.6945 72.0552 99.6436 72.0552 99.5419V88.8963C72.0552 88.7947 72.1062 88.7437 72.2082 88.7437ZM74.4264 90.7292C74.3244 90.7292 74.2734 90.7803 74.2734 90.8818V93.3714C74.2734 93.4734 74.3294 93.5241 74.4417 93.5241H77.2107C77.3534 93.5241 77.5114 93.453 77.685 93.3104C77.8276 93.1882 77.9374 93.01 78.0139 92.7758C78.0904 92.5417 78.1286 92.2821 78.1286 91.9969C78.1286 91.8544 78.1209 91.7246 78.1057 91.6074C78.0904 91.4905 78.0572 91.3809 78.0062 91.279C77.8431 90.9429 77.6492 90.7597 77.4249 90.7292H74.4264Z" fill="#575656"></path><path d="M89.5503 88.7437C89.6522 88.7437 89.7033 88.7947 89.7033 88.8963V90.5764C89.7033 90.6783 89.6522 90.7292 89.5503 90.7292H84.869C84.7773 90.7292 84.6701 90.7673 84.5478 90.8437C84.4254 90.9202 84.3106 91.0169 84.2035 91.1339C84.0965 91.251 84.0046 91.3733 83.9282 91.5005C83.8517 91.6279 83.8134 91.7371 83.8134 91.8289V95.8151C83.8134 96.3752 83.9408 96.8284 84.1959 97.1744C84.4508 97.5206 84.7773 97.6936 85.175 97.6936H87.0414C87.2351 97.6936 87.4059 97.6581 87.5538 97.5869C87.7016 97.5157 87.824 97.429 87.921 97.3273C88.0179 97.2255 88.0893 97.1159 88.1352 96.9988C88.1811 96.8819 88.2041 96.7773 88.2041 96.6857V95.2654C88.2041 95.1636 88.1529 95.1125 88.0511 95.1125H85.5575C85.4553 95.1125 85.4045 95.0618 85.4045 94.9598V93.2798C85.4045 93.178 85.4553 93.127 85.5575 93.127H90.3153C90.4171 93.127 90.4683 93.178 90.4683 93.2798V96.7162C90.4683 96.9505 90.4147 97.2381 90.3076 97.5791C90.2005 97.9205 90.0246 98.2462 89.7798 98.5567C89.535 98.8674 89.2111 99.1346 88.8084 99.3585C88.4053 99.5825 87.9031 99.6945 87.3015 99.6945H84.6395C84.15 99.6945 83.7164 99.5825 83.3392 99.3585C82.9618 99.1346 82.6431 98.852 82.383 98.5108C82.123 98.1697 81.9265 97.793 81.7941 97.3806C81.6614 96.9683 81.5952 96.5687 81.5952 96.1816V91.844C81.5952 91.508 81.669 91.1568 81.8169 90.7903C81.9647 90.4237 82.1662 90.0876 82.4213 89.7821C82.6761 89.4768 82.9721 89.2273 83.3085 89.0338C83.6452 88.8404 84.007 88.7437 84.3948 88.7437H89.5503Z" fill="#575656"></path><path d="M91.8007 88.7437H93.7131C93.8148 88.7437 93.866 88.7947 93.866 88.8963V99.5419C93.866 99.6436 93.8148 99.6945 93.7131 99.6945H91.8007C91.6987 99.6945 91.6477 99.6436 91.6477 99.5419V88.8963C91.6477 88.7947 91.6987 88.7437 91.8007 88.7437Z" fill="#575656"></path><path d="M95.0227 90.9888C95.0227 90.5917 95.0583 90.2506 95.1298 89.9655C95.201 89.6805 95.3234 89.4489 95.4969 89.2705C95.6703 89.0925 95.9024 88.96 96.1931 88.8734C96.4837 88.787 96.8482 88.7437 97.2869 88.7437C97.9294 88.7437 98.396 88.8454 98.6866 89.0492C98.9773 89.2529 99.1736 89.5329 99.2757 89.8891L101.326 97.434C101.356 97.536 101.407 97.5869 101.479 97.5869C101.55 97.5869 101.586 97.536 101.586 97.434V88.8963C101.586 88.7947 101.637 88.7437 101.739 88.7437H103.651C103.753 88.7437 103.804 88.7947 103.804 88.8963V97.9381C103.804 98.1418 103.763 98.3455 103.682 98.5491C103.6 98.7528 103.49 98.9412 103.353 99.1142C103.215 99.2874 103.052 99.4273 102.863 99.5341C102.674 99.641 102.473 99.6945 102.259 99.6945H100.851C100.729 99.6945 100.599 99.6616 100.461 99.5951C100.324 99.5291 100.194 99.4425 100.071 99.3355C99.9488 99.2288 99.8416 99.109 99.7499 98.9767C99.6582 98.8444 99.5916 98.7069 99.551 98.5643L97.4858 90.9735C97.4551 90.8818 97.4092 90.8361 97.3481 90.8361C97.2766 90.8361 97.241 90.8818 97.241 90.9735V99.5419C97.241 99.6436 97.1898 99.6945 97.088 99.6945H95.1757C95.0736 99.6945 95.0227 99.6436 95.0227 99.5419V90.9888Z" fill="#575656"></path><path d="M112.921 88.7437C113.023 88.7437 113.074 88.7947 113.074 88.8963V90.5764C113.074 90.6783 113.023 90.7292 112.921 90.7292H108.239C108.148 90.7292 108.04 90.7673 107.918 90.8437C107.796 90.9202 107.681 91.0169 107.574 91.1339C107.467 91.251 107.375 91.3733 107.299 91.5005C107.222 91.6279 107.184 91.7371 107.184 91.8289V95.8151C107.184 96.3752 107.311 96.8284 107.566 97.1744C107.821 97.5206 108.148 97.6936 108.545 97.6936H110.412C110.605 97.6936 110.776 97.6581 110.924 97.5869C111.072 97.5157 111.194 97.429 111.291 97.3273C111.388 97.2255 111.46 97.1159 111.506 96.9988C111.552 96.8819 111.574 96.7773 111.574 96.6857V95.2654C111.574 95.1636 111.523 95.1125 111.421 95.1125H108.928C108.826 95.1125 108.775 95.0618 108.775 94.9598V93.2798C108.775 93.178 108.826 93.127 108.928 93.127H113.686C113.787 93.127 113.839 93.178 113.839 93.2798V96.7162C113.839 96.9505 113.785 97.2381 113.678 97.5791C113.571 97.9205 113.395 98.2462 113.15 98.5567C112.905 98.8674 112.582 99.1346 112.179 99.3585C111.776 99.5825 111.274 99.6945 110.672 99.6945H108.01C107.52 99.6945 107.087 99.5825 106.71 99.3585C106.332 99.1346 106.014 98.852 105.753 98.5108C105.493 98.1697 105.297 97.793 105.164 97.3806C105.032 96.9683 104.966 96.5687 104.966 96.1816V91.844C104.966 91.508 105.039 91.1568 105.187 90.7903C105.335 90.4237 105.537 90.0876 105.792 89.7821C106.047 89.4768 106.342 89.2273 106.679 89.0338C107.015 88.8404 107.377 88.7437 107.765 88.7437H112.921Z" fill="#575656"></path><path d="M117.879 95.143C117.563 95.143 117.224 95.1025 116.862 95.0209C116.5 94.9395 116.171 94.7818 115.875 94.5474C115.701 94.405 115.556 94.2343 115.439 94.0357C115.322 93.8372 115.225 93.6234 115.148 93.3943C115.072 93.1653 115.016 92.9312 114.98 92.6917C114.944 92.4527 114.927 92.2158 114.927 91.9816V91.6914C114.927 91.5996 114.937 91.508 114.957 91.4164C115.028 90.5306 115.36 89.8434 115.952 89.3545C116.125 89.212 116.339 89.0747 116.594 88.9422C116.849 88.8099 117.099 88.7437 117.344 88.7437H122.407C122.509 88.7437 122.56 88.7947 122.56 88.8963V90.5764C122.56 90.6783 122.509 90.7292 122.407 90.7292H117.986C117.843 90.7292 117.713 90.7928 117.596 90.9202C117.479 91.0475 117.394 91.167 117.344 91.279C117.292 91.3809 117.262 91.4829 117.252 91.5845C117.242 91.6864 117.236 91.7882 117.236 91.8899C117.236 92.053 117.247 92.221 117.267 92.394C117.287 92.5672 117.359 92.7199 117.481 92.8522C117.593 92.9643 117.749 93.0304 117.948 93.0507C118.147 93.0713 118.363 93.0812 118.598 93.0812H120.312C120.628 93.0812 120.959 93.1245 121.306 93.211C121.652 93.2976 121.974 93.463 122.27 93.7075C122.443 93.8501 122.588 94.0231 122.706 94.2267C122.823 94.4306 122.92 94.6493 122.996 94.8834C123.073 95.1179 123.126 95.3621 123.157 95.6165C123.188 95.8712 123.203 96.1156 123.203 96.3497V96.6704C123.203 96.7622 123.193 96.8487 123.172 96.93C123.09 97.8566 122.764 98.5697 122.193 99.0683C122.02 99.211 121.808 99.3509 121.558 99.4884C121.308 99.6258 121.071 99.6945 120.847 99.6945H115.278C115.176 99.6945 115.125 99.6436 115.125 99.5419V97.8617C115.125 97.76 115.176 97.709 115.278 97.709H120.204C120.357 97.709 120.49 97.6352 120.602 97.4875C120.714 97.34 120.796 97.2049 120.847 97.0828C120.898 96.9709 120.928 96.8639 120.939 96.7622C120.949 96.6604 120.954 96.5534 120.954 96.4413C120.954 96.2786 120.944 96.108 120.923 95.9296C120.903 95.7516 120.832 95.5912 120.709 95.4485C120.607 95.3366 120.462 95.2578 120.273 95.2119C120.084 95.1659 119.863 95.143 119.608 95.143H117.879Z" fill="#575656"></path><path d="M135.739 97.8617V99.5419C135.739 99.6436 135.688 99.6945 135.586 99.6945H131.15C131.078 99.6945 131.017 99.6895 130.966 99.6792C130.119 99.6081 129.518 99.3611 129.161 98.9384C128.804 98.5162 128.625 97.877 128.625 97.0218V88.8963C128.625 88.7947 128.676 88.7437 128.778 88.7437H130.691C130.793 88.7437 130.844 88.7947 130.844 88.8963V97.2049C130.844 97.541 131.043 97.709 131.44 97.709H135.586C135.688 97.709 135.739 97.76 135.739 97.8617Z" fill="#575656"></path><path d="M136.493 88.7437H138.406C138.507 88.7437 138.559 88.7947 138.559 88.8963V99.5419C138.559 99.6436 138.507 99.6945 138.406 99.6945H136.493C136.391 99.6945 136.34 99.6436 136.34 99.5419V88.8963C136.34 88.7947 136.391 88.7437 136.493 88.7437Z" fill="#575656"></path><path d="M139.868 90.4847C139.868 90.1487 139.929 89.8689 140.051 89.6448C140.174 89.4209 140.337 89.2425 140.541 89.1102C140.745 88.9779 140.977 88.8837 141.237 88.8277C141.497 88.7718 141.765 88.7437 142.04 88.7437C142.478 88.7437 142.836 88.7692 143.111 88.8199C143.386 88.871 143.613 88.9855 143.792 89.1637C143.97 89.3419 144.11 89.6091 144.212 89.9655C144.314 90.3221 144.416 90.8054 144.518 91.4164L145.345 96.4718C145.355 96.5127 145.367 96.5788 145.383 96.6704C145.398 96.7622 145.418 96.8537 145.444 96.9453C145.469 97.0369 145.495 97.1185 145.52 97.1898C145.546 97.261 145.569 97.2966 145.589 97.2966C145.61 97.2966 145.635 97.261 145.666 97.1898C145.696 97.1185 145.722 97.0369 145.742 96.9453C145.763 96.8537 145.783 96.7647 145.803 96.6781C145.824 96.5917 145.834 96.5382 145.834 96.5177L146.63 91.3554C146.721 90.7649 146.821 90.2938 146.928 89.9426C147.035 89.5914 147.178 89.3293 147.356 89.1559C147.535 88.983 147.767 88.871 148.052 88.8199C148.338 88.7692 148.705 88.7437 149.154 88.7437C149.796 88.7437 150.321 88.871 150.73 89.1254C151.137 89.38 151.341 89.818 151.341 90.439V99.5419C151.341 99.6436 151.29 99.6945 151.188 99.6945H149.276C149.174 99.6945 149.123 99.6436 149.123 99.5419V91.2179C149.123 91.1975 149.118 91.1544 149.108 91.088C149.098 91.0219 149.067 90.9888 149.016 90.9888C148.965 90.9888 148.927 91.0068 148.901 91.0423C148.876 91.078 148.853 91.1163 148.833 91.1568C148.822 91.1774 148.81 91.2231 148.794 91.2943C148.779 91.3656 148.764 91.442 148.748 91.5234C148.733 91.605 148.718 91.6864 148.702 91.7677C148.687 91.8493 148.674 91.9105 148.664 91.951C148.603 92.2056 148.544 92.4729 148.488 92.7528C148.432 93.033 148.353 93.4045 148.251 93.8677C148.149 94.3312 148.024 94.9217 147.876 95.6395C147.728 96.3572 147.532 97.2764 147.287 98.3963C147.257 98.5593 147.206 98.7171 147.134 98.8698C147.063 99.0225 146.964 99.1599 146.836 99.282C146.709 99.4044 146.538 99.5036 146.324 99.58C146.109 99.6564 145.839 99.6945 145.513 99.6945C145.217 99.6945 144.975 99.659 144.786 99.5876C144.597 99.5165 144.442 99.4273 144.32 99.3204C144.197 99.2134 144.105 99.0939 144.044 98.9614C143.983 98.8292 143.937 98.7017 143.906 98.5796L142.377 91.3095C142.366 91.2893 142.348 91.2308 142.323 91.1339C142.297 91.0373 142.264 90.9838 142.224 90.9735H142.147C142.106 90.9735 142.086 91.0094 142.086 91.0804V99.5419C142.086 99.6436 142.035 99.6945 141.933 99.6945H140.021C139.919 99.6945 139.868 99.6436 139.868 99.5419V90.4847Z" fill="#575656"></path><path d="M152.7 88.7437H154.612C154.714 88.7437 154.765 88.7947 154.765 88.8963V99.5419C154.765 99.6436 154.714 99.6945 154.612 99.6945H152.7C152.598 99.6945 152.547 99.6436 152.547 99.5419V88.8963C152.547 88.7947 152.598 88.7437 152.7 88.7437Z" fill="#575656"></path><path d="M160.635 99.5419C160.635 99.6436 160.583 99.6945 160.482 99.6945H158.569C158.467 99.6945 158.416 99.6436 158.416 99.5419V90.8818C158.416 90.7803 158.365 90.7292 158.263 90.7292H155.77C155.668 90.7292 155.617 90.6783 155.617 90.5764V88.8963C155.617 88.7947 155.668 88.7437 155.77 88.7437H163.281C163.383 88.7437 163.434 88.7947 163.434 88.8963V90.5764C163.434 90.6783 163.383 90.7292 163.281 90.7292H160.788C160.685 90.7292 160.635 90.7803 160.635 90.8818V99.5419Z" fill="#575656"></path><path d="M164.373 91.0804C164.373 90.3881 164.562 89.8256 164.939 89.3928C165.316 88.96 165.862 88.7437 166.576 88.7437H171.762C171.895 88.7437 171.961 88.7947 171.961 88.8963V90.5764C171.961 90.6783 171.91 90.7292 171.808 90.7292H166.744C166.642 90.7292 166.591 90.7852 166.591 90.8972V92.9743C166.591 93.0763 166.642 93.127 166.744 93.127H171.441C171.543 93.127 171.594 93.178 171.594 93.2798V95.0363C171.594 95.138 171.543 95.1889 171.441 95.1889H166.744C166.642 95.1889 166.591 95.24 166.591 95.3416V97.5563C166.591 97.6581 166.642 97.709 166.744 97.709H171.808C171.91 97.709 171.961 97.76 171.961 97.8617V99.5419C171.961 99.6436 171.91 99.6945 171.808 99.6945H165.888C165.704 99.6945 165.52 99.6462 165.337 99.5495C165.153 99.4529 164.99 99.3279 164.847 99.1753C164.704 99.0225 164.59 98.852 164.503 98.6637C164.416 98.4753 164.373 98.2843 164.373 98.0907V91.0804Z" fill="#575656"></path><path d="M173.155 99.5419V88.8963C173.155 88.7947 173.206 88.7437 173.308 88.7437H178.525C179.106 88.7437 179.608 88.8558 180.032 89.0797C180.455 89.3038 180.804 89.5939 181.08 89.9502C181.355 90.3067 181.556 90.7138 181.684 91.172C181.811 91.6304 181.875 92.0937 181.875 92.5618V96.2276C181.875 96.6247 181.811 97.0293 181.684 97.4418C181.556 97.8541 181.355 98.2282 181.08 98.5643C180.804 98.9003 180.457 99.1729 180.039 99.3815C179.621 99.5901 179.121 99.6945 178.54 99.6945H173.308C173.206 99.6945 173.155 99.6436 173.155 99.5419ZM175.373 97.5563C175.373 97.6581 175.424 97.709 175.526 97.709H178.265C178.428 97.709 178.594 97.6659 178.762 97.5791C178.93 97.4929 179.081 97.3805 179.213 97.2432C179.346 97.1058 179.453 96.9529 179.534 96.7849C179.616 96.6169 179.657 96.4466 179.657 96.2733V92.2106C179.657 92.0274 179.611 91.8467 179.519 91.6685C179.427 91.4905 179.31 91.3324 179.167 91.1949C179.024 91.0574 178.864 90.9457 178.685 90.8589C178.507 90.7727 178.326 90.7292 178.142 90.7292H175.526C175.424 90.7292 175.373 90.7803 175.373 90.8818V97.5563Z" fill="#575656"></path><path d="M150.256 0H31.6594V80.8617H150.256V0Z" fill="#575656"></path><path fill-rule="evenodd" clip-rule="evenodd" d="M150.256 37.8306H129.36V21.4246C129.36 13.6878 122.996 7.37463 115.261 7.37463H66.6577C58.8951 7.37463 52.56 13.6878 52.56 21.4246V37.8306H31.6594V43.0056H52.56V59.4362C52.56 67.1472 58.8951 73.4872 66.6579 73.4872H115.261C122.996 73.4872 129.36 67.1472 129.36 59.4362V43.0057H150.256V37.8306Z" fill="#EF8000"></path><path d="M87.4537 48.0603V32.8007H78.895V15.439H66.311V65.4229H78.8951L78.895 48.0603H87.4537Z" fill="white"></path><path d="M102.659 15.439V32.8007H94.0745V48.0603H102.659V65.4229H115.607V15.439H102.659Z" fill="white"></path></g><defs><clipPath id="clip0_406_445"><rect width="181.875" height="100" fill="white"></rect></clipPath></defs></svg>